<?xml version="1.0" encoding="utf-8"?>
<!-- Generator: Adobe Illustrator 25.2.0, SVG Export Plug-In . SVG Version: 6.00 Build 0)  -->
<svg version="1.1" id="Calque_1" xmlns="http://www.w3.org/2000/svg" xmlns:xlink="http://www.w3.org/1999/xlink" x="0px" y="0px"
	 viewBox="0 0 771.8 737" style="enable-background:new 0 0 771.8 737;" xml:space="preserve">
<style type="text/css">
	.st0{fill:#42444C;}
</style>
<g>
	<path class="st0" d="M588.6,455.6c0,22-18.7,39.9-41.8,39.9H224.9c-23.1,0-41.8-17.9-41.8-39.9V283.9l202.7,127l202.7-127
		L588.6,455.6L588.6,455.6z M224.9,241.5h321.9c11,0,21,4.1,28.4,10.7L385.9,370.8L196.5,252.1C204,245.5,213.9,241.5,224.9,241.5
		 M385.9,0C172.8,0,0,165,0,368.5S172.8,737,385.9,737s385.9-165,385.9-368.5S599,0,385.9,0"/>
</g>
</svg>
