<?xml version="1.0" encoding="utf-8"?>
<!-- Generator: Adobe Illustrator 25.2.0, SVG Export Plug-In . SVG Version: 6.00 Build 0)  -->
<svg version="1.1" id="Calque_1" xmlns="http://www.w3.org/2000/svg" xmlns:xlink="http://www.w3.org/1999/xlink" x="0px" y="0px"
	 viewBox="0 0 1182.5 1407.2" style="enable-background:new 0 0 1182.5 1407.2;" xml:space="preserve">
<style type="text/css">
	.st0{fill:#42444C;}
	.st1{fill:#FFFFFF;}
	.st2{fill:none;stroke:#FFFFFF;stroke-width:2.322;stroke-miterlimit:10;}
</style>
<polygon class="st0" points="646.6,992.1 245.3,838 68.9,1206.3 316.5,1185.5 470.2,1360.4 "/>
<path class="st1" d="M253.7,857l371.7,142.7l-159.3,332.8l-131.6-149.6l-10.9-12.3l-17.5,1.5l-211.7,17.8L253.7,857z M43.4,1223
	l265.8-22.4l165.1,187.9l193.4-404L236.8,819L43.4,1223z"/>
<polygon class="st0" points="528.8,989.5 710.9,1369.9 868.6,1190.6 1122.3,1212 940.2,831.6 "/>
<path class="st1" d="M556.9,999.5l372-142.8l159.5,333.2L859,1170.6l-142.6,162.2L556.9,999.5z M912,821.5L540,964.3l-39.3,15.1
	l16.9,35.2L677,1347.8l28.4,59.4l44.6-50.7l128.2-145.8l206.2,17.4l71.8,6l-28.4-59.3L968.3,841.6l-16.9-35.2L912,821.5z"/>
<g>
	<path class="st0" d="M591.3,1050.8c13,0,25.6-4.1,35.6-11.5l33.1-24.6c2.8-2.2,6.5-3.3,10.2-3.3c2.2,0,4.3,0.4,6.3,1.2l39.5,15.3
		c7,2.7,14.4,4.1,22.1,4.1c18.6,0,35.9-8.2,46.3-22.1l24-32c2.9-4,7.9-6.3,13.2-6.3c0.7,0,1.3,0,1.9,0.1l42.7,4.7
		c2.2,0.3,4.5,0.3,6.8,0.3c24.4,0,45.7-14,53.1-34.8l13-36.8c1.8-5.1,6.6-8.9,12.6-9.8l42.5-6.3c26.4-3.9,46.1-24.2,46.6-48.2
		l0.9-38.5c0.1-5.4,3.6-10.2,9-12.6l38.8-16.7c24.2-10.4,36.6-34.8,29.6-58l-11.3-37.2c-1.6-5.2,0.2-10.7,4.7-14.4l31.9-25.8
		c19.9-16.1,24.2-42.7,10.1-63.1l-22.5-32.8c-3.2-4.6-3.2-10.3,0-14.9l22.5-32.8c14.1-20.4,9.8-47-10.1-63.1l-31.9-25.8
		c-4.5-3.6-6.3-9.1-4.7-14.3l11.3-37.2c7-23.2-5.4-47.6-29.6-58l-38.8-16.7c-5.4-2.4-8.9-7.2-9-12.6l-0.9-38.5
		c-0.6-24-20.2-44.3-46.6-48.2l-42.5-6.3c-5.9-0.9-10.8-4.6-12.6-9.8l-13-36.7c-7.3-20.8-28.7-34.8-53.1-34.8
		c-2.3,0-4.6,0.1-6.8,0.3L823.4,97c-0.7,0.1-1.3,0.1-1.9,0.1c-5.3,0-10.3-2.3-13.2-6.3l-24-32c-10.4-13.8-27.7-22-46.3-22
		c-7.6,0-15.1,1.4-22.1,4.1l-39.5,15.3c-2,0.8-4.1,1.2-6.3,1.2c-3.7,0-7.3-1.2-10.2-3.3l-33.1-24.6c-10-7.4-22.6-11.5-35.6-11.5
		s-25.6,4.1-35.6,11.5L522.6,54c-2.8,2.2-6.5,3.3-10.2,3.3c-2.2,0-4.3-0.4-6.3-1.2l-39.5-15.3c-7-2.7-14.4-4.1-22.1-4.1
		c-18.6,0-35.9,8.2-46.3,22l-24,32c-2.9,4-7.9,6.3-13.2,6.3c-0.7,0-1.3,0-1.9-0.1l-42.7-4.7c-2.2-0.3-4.5-0.3-6.8-0.3
		c-24.4,0-45.7,14-53.1,34.8l-13,36.7c-1.8,5.2-6.6,8.9-12.6,9.8l-42.5,6.3c-26.5,3.9-46.1,24.2-46.6,48.2l-0.9,38.5
		c-0.1,5.4-3.6,10.2-9,12.6l-38.7,16.7c-24.2,10.4-36.6,34.8-29.6,58l11.3,37.2c1.6,5.2-0.2,10.7-4.7,14.3l-31.9,25.8
		C18.3,447,14,473.6,28.1,494l22.5,32.8c3.2,4.6,3.2,10.3,0,14.9l-22.5,32.8c-14.1,20.4-9.8,47,10.1,63.1l31.9,25.8
		c4.5,3.6,6.3,9.2,4.7,14.4L63.6,715c-7,23.2,5.4,47.6,29.6,58l38.7,16.7c5.4,2.4,8.9,7.2,9,12.6l0.9,38.5
		c0.6,24,20.2,44.3,46.6,48.2l42.5,6.3c5.9,0.9,10.8,4.6,12.6,9.8l13,36.8c7.3,20.8,28.7,34.8,53.1,34.8c2.3,0,4.6-0.1,6.8-0.3
		l42.7-4.7c0.7-0.1,1.3-0.1,1.9-0.1c5.3,0,10.3,2.3,13.2,6.3l24,32c10.4,13.8,27.7,22.1,46.3,22.1c7.6,0,15.1-1.4,22.1-4.1
		l39.5-15.3c2-0.8,4.1-1.2,6.3-1.2c3.7,0,7.3,1.2,10.2,3.3l33.1,24.6C565.6,1046.7,578.3,1050.8,591.3,1050.8"/>
	<path class="st1" d="M591.3,0c17.6,0,34.8,5.6,48.3,15.7l31.2,23.2l37.3-14.4c9.5-3.7,19.6-5.6,29.9-5.6
		c25.2,0,48.7,11.2,62.8,29.9L823.4,79l40.3-4.4c3-0.3,6.1-0.5,9.2-0.5c16.1,0,31.4,4.5,44.5,13c13.1,8.6,22.7,20.5,27.6,34.3
		l12.2,34.7l40.1,6c35.9,5.3,62.5,32.8,63.3,65.4l0.9,36.4l36.6,15.8c32.8,14.2,49.7,47.3,40.2,78.7l-10.7,35.1l30.1,24.4
		c27,21.8,32.8,57.9,13.8,85.7l-21.2,31l21.2,31c19,27.8,13.2,63.8-13.8,85.7l-30.1,24.3l10.7,35.1c9.5,31.5-7.4,64.6-40.2,78.7
		l-36.6,15.8l-0.9,36.3c-0.7,32.6-27.4,60.1-63.3,65.4l-40.1,5.9L945,947.2c-4.9,13.9-14.4,25.8-27.6,34.3
		c-13,8.5-28.4,12.9-44.5,12.9c-3.1,0-6.2-0.1-9.2-0.5l-40.3-4.4l-22.7,30.2c-14.1,18.8-37.5,29.9-62.8,29.9
		c-10.4,0-20.4-1.9-29.9-5.6l-37.3-14.4l-31.2,23.3c-13.6,10.1-30.7,15.6-48.3,15.6s-34.8-5.6-48.3-15.6l-31.2-23.3l-37.3,14.4
		c-9.5,3.7-19.6,5.6-29.9,5.6c-25.2,0-48.7-11.2-62.8-29.9l-22.7-30.2l-40.3,4.4c-3,0.3-6.1,0.5-9.2,0.5c-16.1,0-31.4-4.5-44.5-12.9
		c-13.1-8.6-22.7-20.4-27.6-34.3l-12.2-34.7l-40.1-5.9c-35.9-5.3-62.5-32.8-63.2-65.4l-0.9-36.3l-36.5-15.8
		c-32.8-14.2-49.7-47.2-40.2-78.7l10.7-35.1l-30.1-24.3c-27-21.9-32.8-57.9-13.8-85.7l21.2-31l-21.2-31
		c-19.1-27.8-13.2-63.8,13.8-85.7L55,393.3l-10.7-35.1c-9.5-31.4,7.4-64.6,40.2-78.7l36.5-15.8l0.9-36.4
		c0.7-32.6,27.4-60.1,63.2-65.4l40.1-6l12.2-34.7c4.9-13.9,14.4-25.8,27.6-34.3c13-8.5,28.4-13,44.5-13c3.1,0,6.2,0.2,9.3,0.5
		l40.3,4.4l22.7-30.2c14.1-18.7,37.5-29.9,62.8-29.9c10.4,0,20.4,1.9,29.9,5.6l37.3,14.4l31.2-23.2C556.5,5.6,573.7,0,591.3,0
		 M591.3,35.6c-8.1,0-16.3,2.5-22.9,7.4l-33.1,24.6c-6.6,4.9-14.7,7.4-22.9,7.4c-4.8,0-9.7-0.9-14.2-2.6l-39.5-15.3
		c-4.6-1.8-9.4-2.6-14.2-2.6c-11.7,0-22.9,5.1-29.8,14.2l-24,32c-6.7,8.9-17.9,14.2-29.7,14.2c-1.5,0-2.9,0-4.4-0.2l-42.7-4.7
		c-1.5-0.2-2.9-0.2-4.4-0.2c-15.4,0-29.4,8.9-34.1,22.4l-12.9,36.7c-4.1,11.5-15,20-28.3,22l-42.5,6.3c-17,2.5-29.6,15.5-30,31
		l-0.9,38.5c-0.3,12.1-8.1,23-20.3,28.3l-38.7,16.7c-15.5,6.7-23.6,22.4-19,37.3L94,386c3.5,11.7-0.6,24.1-10.6,32.2l-31.9,25.8
		C38.8,454.5,36,471.5,45,484.7l22.5,32.8c7.1,10.3,7.1,23.3,0,33.6L45,583.9c-9.1,13.2-6.3,30.2,6.5,40.6l31.9,25.8
		c10,8.1,14.1,20.6,10.6,32.2l-11.3,37.2c-4.5,14.9,3.5,30.6,19,37.3l38.7,16.7c12.2,5.2,20,16.1,20.3,28.3l0.9,38.5
		c0.4,15.4,13,28.5,30,31l42.5,6.3c13.3,1.9,24.2,10.4,28.3,22l12.9,36.7c4.8,13.5,18.7,22.4,34.1,22.4c1.5,0,2.9-0.1,4.4-0.3
		l42.7-4.7c1.5-0.2,2.9-0.3,4.4-0.3c11.8,0,23,5.3,29.7,14.2l24,32c6.8,9.1,18.1,14.2,29.8,14.2c4.8,0,9.6-0.9,14.2-2.7l39.5-15.2
		c4.5-1.8,9.4-2.6,14.2-2.6c8.2,0,16.3,2.5,22.9,7.4l33.1,24.6c6.6,4.9,14.8,7.4,22.9,7.4s16.3-2.5,22.9-7.4l33.1-24.6
		c6.6-4.9,14.7-7.4,22.9-7.4c4.8,0,9.7,0.9,14.2,2.6l39.5,15.2c4.6,1.8,9.4,2.7,14.2,2.7c11.7,0,22.9-5.1,29.8-14.2l24-32
		c6.7-8.9,17.9-14.2,29.7-14.2c1.5,0,2.9,0.1,4.4,0.3l42.7,4.7c1.5,0.2,2.9,0.3,4.4,0.3c15.4,0,29.4-8.9,34.1-22.4l12.9-36.7
		c4.1-11.5,15-20,28.3-22l42.4-6.3c17-2.5,29.6-15.5,30-31l0.9-38.5c0.3-12.1,8.1-23,20.3-28.3l38.8-16.7
		c15.5-6.7,23.6-22.4,19-37.3l-11.3-37.2c-3.5-11.7,0.6-24.1,10.6-32.2l31.9-25.8c12.8-10.4,15.6-27.4,6.5-40.6l-22.5-32.8
		c-7.1-10.3-7.1-23.3,0-33.6l22.5-32.8c9.1-13.2,6.3-30.2-6.5-40.6l-31.9-25.8c-10-8.1-14.1-20.5-10.6-32.2l11.3-37.2
		c4.5-14.9-3.5-30.6-19-37.3l-38.8-16.7c-12.2-5.3-20-16.2-20.3-28.3l-0.9-38.5c-0.4-15.5-13-28.5-30-31l-42.4-6.3
		c-13.3-2-24.2-10.5-28.3-22l-12.9-36.7c-4.8-13.5-18.7-22.4-34.1-22.4c-1.5,0-2.9,0-4.4,0.2l-42.7,4.7c-1.5,0.2-2.9,0.2-4.4,0.2
		c-11.8,0-23-5.2-29.7-14.2l-24-32c-6.8-9.1-18.1-14.2-29.8-14.2c-4.8,0-9.6,0.9-14.2,2.6l-39.5,15.3c-4.5,1.8-9.4,2.6-14.2,2.6
		c-8.2,0-16.3-2.5-22.9-7.4l-33.1-24.6C607.5,38.1,599.4,35.6,591.3,35.6"/>
	<path class="st0" d="M591.3,895.4c54,0,106.3-9.4,155.6-28.1c47.6-18,90.4-43.9,127.1-76.8c36.7-32.9,65.5-71.2,85.7-113.8
		c20.8-44.2,31.4-91.1,31.4-139.4c0-48.3-10.6-95.2-31.4-139.4c-20.2-42.6-49-80.9-85.7-113.8c-36.7-32.9-79.4-58.7-127.1-76.7
		c-49.3-18.7-101.7-28.1-155.6-28.1s-106.3,9.5-155.6,28.1c-47.6,18-90.4,43.8-127.1,76.7C271.8,317,243,355.3,222.9,398
		c-20.8,44.1-31.5,91-31.5,139.4s10.6,95.2,31.5,139.4c20.2,42.6,49,80.9,85.7,113.8c36.7,32.9,79.4,58.7,127.1,76.8
		C485,886,537.3,895.4,591.3,895.4"/>
	<path class="st1" d="M591.3,161.5c56.7,0,111.6,10,163.4,29.6c50,18.9,94.8,46,133.4,80.6s68.8,74.7,90,119.5
		c21.9,46.3,33,95.6,33,146.3s-11.1,100-33,146.3c-21.1,44.8-51.4,85-90,119.5c-38.5,34.5-83.4,61.6-133.4,80.5
		c-51.8,19.6-106.8,29.6-163.4,29.6s-111.6-9.9-163.4-29.6c-50-18.9-94.8-46-133.4-80.5s-68.8-74.7-90-119.5
		c-21.9-46.3-33-95.6-33-146.3s11.1-100,33-146.3c21.1-44.8,51.4-85,90-119.5C333,237.1,377.9,210,427.9,191
		C479.6,171.4,534.6,161.5,591.3,161.5 M591.3,197.1c-209.8,0-380,152.4-380,340.3s170.1,340.3,379.9,340.3s379.9-152.3,379.9-340.3
		S801.1,197.1,591.3,197.1"/>
</g>
<polyline class="st2" points="788.4,528.6 641.8,640.8 382.2,405.2 "/>
</svg>
