<?xml version="1.0" encoding="utf-8"?>
<!-- Generator: Adobe Illustrator 25.4.0, SVG Export Plug-In . SVG Version: 6.00 Build 0)  -->
<svg version="1.1" id="Calque_1" xmlns="http://www.w3.org/2000/svg" xmlns:xlink="http://www.w3.org/1999/xlink" x="0px" y="0px"
	 viewBox="0 0 1536 1189.2" style="enable-background:new 0 0 1536 1189.2;" xml:space="preserve">
<style type="text/css">
	.st0{fill:none;stroke:#42444C;stroke-width:27;stroke-linecap:round;stroke-linejoin:round;stroke-miterlimit:10;}
</style>
<g>
	<path class="st0" d="M361.5,497.5l-228.1,71.2c-17.5,5.4-19.2,29.1-2.8,37.6l48.2,24.8L15.7,948.2c-5.1,10-1,22.3,9.1,27.6
		L409,1173.3c10.2,5.2,22.6,1.4,27.7-8.6l163.1-317.1l48.2,24.8c16.4,8.4,34.6-6.8,28.9-24.1L635,721l70.5-137.2
		c5.1-10,1.1-22.3-9.1-27.6l-28.2-14.5c-10.2-5.2-22.6-1.4-27.7,8.6l-37.6,73.1l-53.7-163.1c-3.6-10.8-15.2-16.8-26.1-13.4
		l-30.4,9.5 M508.9,545.6c0,14.5-11.8,26.3-26.3,26.3c-14.5,0-26.3-11.8-26.3-26.3c0-14.5,11.8-26.3,26.3-26.3
		C497.1,519.3,508.9,531.1,508.9,545.6z M648.6,265.5c1,13.7,3.4,27.5,7.4,41.2c30.3,102.6,138,161.3,240.7,131
		c81.4-24,135-96.8,138.6-177.2l197.2-58.2l19.9-53.7l45.9,34.3l19.7-54.7l46.2,35.3l19.4-54.3l46.4,34.9l32.9-9.7l41-77.8
		l-76.7-43.1L999.6,139.6C952.9,74.1,868.4,42,787,66c-49.9,14.7-89.2,47.9-113.1,89.8 M713.8,297.3c2.8,6.1,6.8,11.5,11.7,16
		c4.8,4.5,10.6,8,16.8,10.4c6.3,2.4,13.1,3.5,20.2,3.3c7.1-0.3,13.8-2,19.9-4.8c6.1-2.8,11.5-6.8,15.9-11.7
		c4.5-4.8,8-10.5,10.4-16.8s3.5-13.1,3.3-20.2c-0.2-5.1-1.1-10-2.7-14.6c-1.6-4.6-3.8-8.9-6.5-12.8c-2.7-3.9-6-7.4-9.7-10.4
		s-7.8-5.5-12.1-7.4 M735.6,485.7c16,41.3,46.1,77.5,88.1,100.3c74.6,40.6,163.9,27,223.3-27.2l180.6,98.3l52.1-23.9l8.2,56.7
		l52.6-24.8l7.7,57.6l52.1-24.7l8.1,57.5l30.1,16.4l84.1-26l-23.8-84.7L1107.3,448c7.5-44.7-1.1-90.2-23.2-128.9 M734.8,250.5
		c-57.3-56.4-146.1-73.3-222.1-35.5c-95.8,47.7-134.8,164-87.2,259.8c14.5,29.1,35.3,52.9,59.9,70.7"/>
</g>
</svg>
