<?xml version="1.0" encoding="utf-8"?>
<!-- Generator: Adobe Illustrator 25.2.0, SVG Export Plug-In . SVG Version: 6.00 Build 0)  -->
<svg version="1.1" id="Calque_1" xmlns="http://www.w3.org/2000/svg" xmlns:xlink="http://www.w3.org/1999/xlink" x="0px" y="0px"
	 viewBox="0 0 771.8 737" style="enable-background:new 0 0 771.8 737;" xml:space="preserve">
<style type="text/css">
	.st0{fill:#42444C;}
</style>
<g>
	<path class="st0" d="M385.9,521.2c-8.7,0-15.7,6.7-15.7,15c0,8.2,7,15,15.7,15s15.7-6.7,15.7-15C401.6,528,394.6,521.2,385.9,521.2
		"/>
	<path class="st0" d="M488.7,206.4H283.1c-4.7,0-8.4,3.6-8.4,8v281.1c0,4.4,3.7,8,8.4,8h205.7c4.7,0,8.4-3.6,8.4-8V214.4
		C497.1,209.9,493.4,206.4,488.7,206.4"/>
	<path class="st0" d="M371.5,193.3h28.8c2.8,0,5-2.1,5-4.7c0-2.6-2.2-4.7-5-4.7h-28.8c-2.8,0-5,2.1-5,4.7
		C366.5,191.2,368.7,193.3,371.5,193.3"/>
	<path class="st0" d="M518,552.2c0,9.3-7.9,16.8-17.6,16.8H271.3c-9.7,0-17.6-7.5-17.6-16.8V184.8c0-9.2,7.9-16.8,17.6-16.8h229.1
		c9.7,0,17.6,7.5,17.6,16.8V552.2z M385.9,0C172.8,0,0,165,0,368.5S172.8,737,385.9,737s385.9-165,385.9-368.5S599,0,385.9,0"/>
</g>
</svg>
