<?xml version="1.0" encoding="utf-8"?>
<!-- Generator: Adobe Illustrator 25.4.0, SVG Export Plug-In . SVG Version: 6.00 Build 0)  -->
<svg version="1.1" id="Calque_1" xmlns="http://www.w3.org/2000/svg" xmlns:xlink="http://www.w3.org/1999/xlink" x="0px" y="0px"
	 viewBox="0 0 754.2 720.2" style="enable-background:new 0 0 754.2 720.2;" xml:space="preserve">
<style type="text/css">
	.st0{fill:#FFFFFF;}
</style>
<path class="st0" d="M518.6,498.2c-16.2,13.4-33.7,20.1-52.4,20.1c-23.2,0-49.2-7.5-78.1-22.4c-28.8-14.9-55.6-33.7-80.2-56.2
	c-24.6-22.5-45.8-47.9-63.7-76c-17.9-28.2-28.3-54.3-31.1-78.3c-2.5-17.8-2.7-30-0.6-36.4c2-6.4,8.9-14.9,20.7-25.4
	c16.2-15.9,31.5-23.1,45.7-21.5c8.9,1.2,15.6,4.4,19.8,9.6c4.3,5.2,9.5,16.6,15.5,34.1l14.6,41.3l-19.5,19.2l-20.1,19.8l23.2,34.9
	c10.6,16,26.1,32.2,46.6,48.9c20.5,16.7,35.2,25.1,44.2,25.1c5.2,0,13.6-4.8,25-14.6c7.7-7,14.4-10.7,20.1-11.1
	c5.7-0.4,17.9,1.7,36.6,6.4c26.4,6.6,42.7,11.9,48.8,15.8c6.1,3.9,9.1,11.6,9.1,23.3C543,470.3,534.9,484.8,518.6,498.2 M377.1,0
	C168.8,0,0,161.2,0,360.1c0,198.9,168.8,360.1,377.1,360.1s377.1-161.2,377.1-360.1C754.2,161.2,585.4,0,377.1,0"/>
</svg>
