<?xml version="1.0" encoding="utf-8"?>
<!-- Generator: Adobe Illustrator 25.4.0, SVG Export Plug-In . SVG Version: 6.00 Build 0)  -->
<svg version="1.1" id="Calque_1" xmlns="http://www.w3.org/2000/svg" xmlns:xlink="http://www.w3.org/1999/xlink" x="0px" y="0px"
	 viewBox="0 0 754.2 720.2" style="enable-background:new 0 0 754.2 720.2;" xml:space="preserve">
<style type="text/css">
	.st0{fill:#FFFFFF;}
</style>
<path class="st0" d="M571.6,443.3c0,21-17.8,38-39.8,38H225c-22,0-39.8-17-39.8-38V279.6l193.2,121.1l193.2-121.1V443.3z M225,239.2
	h306.8c10.4,0,20,3.9,27.1,10.2L378.4,362.4L198,249.4C205,243.1,214.6,239.2,225,239.2 M378.4,9.1C175.3,9.1,10.7,166.3,10.7,360.3
	s164.6,351.1,367.7,351.1c203.1,0,367.7-157.2,367.7-351.1S581.5,9.1,378.4,9.1"/>
</svg>
