<?xml version="1.0" encoding="utf-8"?>
<!-- Generator: Adobe Illustrator 25.4.0, SVG Export Plug-In . SVG Version: 6.00 Build 0)  -->
<svg version="1.1" id="Calque_1" xmlns="http://www.w3.org/2000/svg" xmlns:xlink="http://www.w3.org/1999/xlink" x="0px" y="0px"
	 viewBox="0 0 1271.1 1271.1" style="enable-background:new 0 0 1271.1 1271.1;" xml:space="preserve">
<style type="text/css">
	.st0{fill:#404040;stroke:#42444C;stroke-miterlimit:10;}
	.st1{fill:none;stroke:#42444C;stroke-width:0.25;stroke-miterlimit:10;}
</style>
<g>
	<path class="st0" d="M986.6,481.6l-85.5-9.5c-1.8-28-11.6-53-30.2-71.7c-6.1-6-15.9-6-21.9,0c-6.1,6-6.1,15.9,0,21.9
		c12.2,12.2,19,28.2,21.3,46.4l-61.1-6.8l-19.7-177.5L1036,37.9L1233.2,235L986.6,481.6z M805.1,619.4
		c-18.2,18.2-38.1,32.8-58.2,43.6L608.2,524.4c11.7-21,26.3-40.7,43.9-58.3c35.4-35.9,79-59.3,119.1-64.7l8.5,76.2
		c0.8,7.2,6.5,12.9,13.7,13.7l76.5,8.5C864.5,538.7,842.1,582.5,805.1,619.4 M805.9,765.8v473.7H93.4V765.8l356.2-356.2l266.9,266.9
		c-42.9,14.9-83.7,11.6-108.6-13.3c-6.1-6.1-15.9-6.1-21.9,0c-6.1,6.1-6.1,15.8,0,21.9c35.9,35.9,95.3,39.3,154.1,15L805.9,765.8z
		 M1047,5c-6.1-6-15.8-6-21.9,0L762.2,267.9c-3.3,3.3-5,8-4.4,12.6l10,90.1c-47,6.2-97.4,32.8-137.7,73.7
		c-17.4,17.5-32.3,36.7-44.7,57.3L460.6,376.7c-6.1-6-15.8-6-21.9,0L5,810.4c-6,6.1-6,15.8,0,21.9s15.9,6.1,21.9,0l35.5-35.5v458.3
		c0,8.6,6.9,15.5,15.5,15.5h743.5c8.6,0,15.5-6.9,15.5-15.5V796.8l35.5,35.5c6.1,6.1,15.9,6.1,21.9,0s6.1-15.8,0-21.9L769.5,685.6
		c20.1-11.6,39.6-26.3,57.5-44.3c41.9-41.9,66.8-92.1,72.9-138.2l90.6,10.1c4.7,0.5,9.3-1.1,12.6-4.4L1266,246
		c6.1-6,6.1-15.8,0-21.9L1047,5z"/>
	<path class="st1" d="M986.6,481.6l-85.5-9.5c-1.8-28-11.6-53-30.2-71.7c-6.1-6-15.9-6-21.9,0c-6.1,6-6.1,15.9,0,21.9
		c12.2,12.2,19,28.2,21.3,46.4l-61.1-6.8l-19.7-177.5L1036,37.9L1233.2,235L986.6,481.6z M805.1,619.4
		c-18.2,18.2-38.1,32.8-58.2,43.6L608.2,524.4c11.7-21,26.3-40.7,43.9-58.3c35.4-35.9,79-59.3,119.1-64.7l8.5,76.2
		c0.8,7.2,6.5,12.9,13.7,13.7l76.5,8.5C864.5,538.7,842.1,582.5,805.1,619.4z M805.9,765.8v473.7H93.4V765.8l356.2-356.2
		l266.9,266.9c-42.9,14.9-83.7,11.6-108.6-13.3c-6.1-6.1-15.9-6.1-21.9,0c-6.1,6.1-6.1,15.8,0,21.9c35.9,35.9,95.3,39.3,154.1,15
		L805.9,765.8z M1047,5c-6.1-6-15.8-6-21.9,0L762.2,267.9c-3.3,3.3-5,8-4.4,12.6l10,90.1c-47,6.2-97.4,32.8-137.7,73.7
		c-17.4,17.5-32.3,36.7-44.7,57.3L460.6,376.7c-6.1-6-15.8-6-21.9,0L5,810.4c-6,6.1-6,15.8,0,21.9s15.9,6.1,21.9,0l35.5-35.5v458.3
		c0,8.6,6.9,15.5,15.5,15.5h743.5c8.6,0,15.5-6.9,15.5-15.5V796.8l35.5,35.5c6.1,6.1,15.9,6.1,21.9,0s6.1-15.8,0-21.9L769.5,685.6
		c20.1-11.6,39.6-26.3,57.5-44.3c41.9-41.9,66.8-92.1,72.9-138.2l90.6,10.1c4.7,0.5,9.3-1.1,12.6-4.4L1266,246
		c6.1-6,6.1-15.8,0-21.9L1047,5z"/>
</g>
</svg>
