<?xml version="1.0" encoding="utf-8"?>
<!-- Generator: Adobe Illustrator 25.4.0, SVG Export Plug-In . SVG Version: 6.00 Build 0)  -->
<svg version="1.1" id="Calque_1" xmlns="http://www.w3.org/2000/svg" xmlns:xlink="http://www.w3.org/1999/xlink" x="0px" y="0px"
	 viewBox="0 0 944.1 963.1" style="enable-background:new 0 0 944.1 963.1;" xml:space="preserve">
<style type="text/css">
	.st0{fill:#42444C;}
</style>
<polygon class="st0" points="773.7,305.3 877,408.7 671.7,614 568.1,510.4 534.5,544 671.7,681.2 944.1,408.7 807.2,271.8 "/>
<polygon class="st0" points="722.4,186.9 688.8,220.5 596.2,127.9 479.4,244.7 445.8,211.1 596.2,60.7 "/>
<polygon class="st0" points="409,485 442.6,518.5 475.8,485.3 681.1,690.6 475.8,896 270.5,690.6 368.5,592.6 334.9,559.1 
	203.4,690.6 475.8,963.1 748.3,690.6 475.8,418.1 "/>
<rect x="415.4" y="453" transform="matrix(0.7071 -0.7071 0.7071 0.7071 -205.091 458.3836)" class="st0" width="70.8" height="47.5"/>
<polygon class="st0" points="368.5,592.6 236.9,724.2 84.8,572.1 162.2,494.7 195.9,528.2 152,572.1 236.9,657.1 334.9,559.1 "/>
<polygon class="st0" points="358.7,0 0,358.7 182.7,541.4 405.3,318.8 371.7,285.2 182.7,474.3 67.1,358.7 358.7,67.1 474.2,182.7 
	445.8,211.1 479.4,244.7 541.4,182.7 "/>
</svg>
