<?xml version="1.0" encoding="utf-8"?>
<!-- Generator: Adobe Illustrator 25.2.0, SVG Export Plug-In . SVG Version: 6.00 Build 0)  -->
<svg version="1.1" id="Calque_1" xmlns="http://www.w3.org/2000/svg" xmlns:xlink="http://www.w3.org/1999/xlink" x="0px" y="0px"
	 viewBox="0 0 1445.1 971" style="enable-background:new 0 0 1445.1 971;" xml:space="preserve">
<style type="text/css">
	.st0{fill:#231E21;}
</style>
<g>
	<path class="st0" d="M1228.9,508.9c-13.4,10.1-20.5,1.2-29.2-4.3C1078.5,427.3,957,350.4,836.5,272.3c-39-25.2-76.6-24.3-115.8-3.8
		c-32,16.7-58.2,39.6-80.7,65.8c-10.6,12.2-23.6,19.6-40.6,21.6c-31.9,3.8-49.8-10.3-49.7-41.6c1-13.9,5.7-28.3,20.5-40
		c34.1-27,67-55.2,100.5-82.8c31.9-26.2,69-35.4,112.3-31.3c79.2,7.5,158.6,13.7,238,18.7c21.6,1.4,32.7,8.7,42.5,25.6
		c53.8,93,109.3,185.3,163.7,278.1C1231.7,490.3,1243.2,498.1,1228.9,508.9 M1191,619.2c-15.1,15.1-37.1,18-57.4,5.9
		c-40.6-24.3-80.2-49.8-120.3-74.7c-13.3-8.3-26.4-17-40.2-24.8c-15.9-9.1-31.8-8.8-42.6,6c-10.4,14.2-7,27.9,8.9,38
		c43.2,27.2,86.7,54.2,129.9,81.5c28.9,18.2,35.9,40.4,19.5,60.7c-16.1,19.9-42.5,21.2-70.8,3.4c-41.3-25.9-82.6-51.9-124.1-77.5
		c-20.8-12.8-38.9-12-49.6,1.4c-11.2,14-6.5,28.9,14.4,42.1c35.8,22.7,72.1,44.9,107.9,67.7c25.7,16.4,32,38.7,17.4,58
		c-14.9,19.8-41.9,22.3-68.6,5.9c-21.4-13.2-42.7-26.7-64.1-39.9c-23-14.2-39.7-14.2-51.5,0.1c-11.8,14.3-6.5,29.1,16,43.4
		c14.6,9.3,29.6,18,43.9,27.7c24.2,16.3,31,39.9,16.9,56.6c-14.6,17.4-40.9,19-65.5,4.8C791.7,894.4,778,885,781,858.1
		c5.1-44.7-34-81.9-87-90.6c-15-2.4-19.4-7.5-21.9-19.9c-7.8-39.6-40.5-68.3-84.8-73.8c-15-1.9-19.9-7.2-22.6-19.8
		c-8.8-41.6-39.9-68-86.6-75.3c-9.7-1.5-18.2-0.7-20-13.5c-5.8-41.1-32.4-68.5-76.8-78.4c-45.1-10.1-83.5,2.7-111.8,36.8
		c-1.4,1.7-3.6,2.8-7.7,6c-10.5-22.7-20.1-43.4-29.6-64.1c-2.5-5.6,1.6-9.8,4.2-14.2c53.2-90.1,106.4-180.2,159.6-270.4
		c4.1-6.9,8.2-16.7,19.5-8.3c40.7,30.5,88.8,31.8,138.1,29.3c2-0.1,4.2,1.2,10.2,3.2c-13.8,11.8-25.8,22.1-37.8,32.4
		c-35.5,30.6-46.9,82.6-27.1,123c29.5,60,129.1,68.5,180.6,14.8c19.7-20.5,39.5-40.5,64.5-56.1c21.8-13.6,40.5-14.5,63.8,0.7
		c120.4,78.4,242,155.2,363,232.8c8.5,5.4,17.5,11.2,23.5,18.7C1207.3,587.5,1205.9,604.2,1191,619.2 M665.4,916.1
		c-24,1.1-44.6-15.4-45.9-36.7c-1.5-24.7,31.6-58.8,57.6-59.4c23.4-0.6,43.8,16.9,44.6,38.2C722.6,882.4,691.1,914.9,665.4,916.1
		 M607.5,785.5c-13.8,19.6-29.4,38.3-44.6,57.1c-8.7,10.8-21.1,15.4-35.8,15.4c-33.4,0-54.7-31-37.5-57.1
		c13.9-21.2,30.2-41.3,47.3-60.7c15.3-17.2,39.6-19,58.8-6.8C614.6,745.4,620.5,767.1,607.5,785.5 M431.8,779.1
		c-17.8,22.2-43.6,27.7-65.1,14.6c-21.4-13.1-24.7-36.8-7.3-59.4c22.6-29.2,45.3-58.4,68.8-87c12.4-15.1,30.4-19.2,49.9-12.9
		c18.6,6,27.9,18.9,28.4,36.7c0.6,10.1-4.2,18.2-10.4,26.2C474.6,724.5,453.5,751.9,431.8,779.1 M259.5,699.4
		c-21.2-13.1-25.2-36-8.8-57.7c21.9-29,44.3-57.6,67.2-85.9c12.6-15.6,29.8-22.6,51.2-16.1c20.1,6.1,29.5,19.5,30,38.1
		c0.4,9.4-4.1,17-9.8,24.3c-21.9,28.1-43.5,56.3-65.9,84C306.7,706.7,279.8,712,259.5,699.4 M1437.1,464.4
		c-13.9-23.9-28.2-47.6-42.2-71.4c-71.8-121.7-143.6-243.3-215.4-365c-18.6-31.5-28.3-34.4-63.4-19c-23.3,10.3-46.5,20.8-69.8,31.2
		c-59.1,26.5-59.1,26.5-33.6,82.9c-7.6,0-13.3,0.4-18.9,0c-67.2-5.3-134.5-10.3-201.6-16.5c-43.2-4-87.2-3.6-122,20
		c-31,21-62.9,23.3-97.9,22.1c-13.8-0.5-27.8-1.2-41.4,0.1c-29,2.9-53.4-5.3-78-18.7c-16.6-9-18.4-16.1-9.5-30.7
		c14.4-23.8,9.8-34.3-17.6-46.9c-34-15.6-68.2-30.9-102.4-46c-26.6-11.7-39.6-8.1-53.6,15.2c-22.7,37.8-44.9,75.9-67.3,113.9
		C137.7,245,73.1,354.3,8.5,463.7c-13.5,23-11.3,36.3,10,46.3c38.1,17.9,76.8,35,115.7,51.6c18.8,8,34.5,3.8,45.1-13.6
		c4-6.5,4.5-15.9,15.3-18c25.7,47.7,25.7,47.7-1.5,92.1c-34.4,56.2,0.8,123.5,72.7,136.4c14.7,2.6,21.4,6.1,24.5,20.2
		c11.7,52.6,61.4,82.4,120.9,73.5c11.9-1.8,18-1.2,24.6,9.6c24.6,40,62,55.8,111.9,48c12.9-2,18,1.3,24.4,11.1
		c36.6,56.7,112,66.8,165.5,21.7c10.5-8.8,16.9-8.2,26.4-1.2c5.7,4.1,11.9,7.6,18.1,11.2c66.5,39,145.8,9.6,161-60.4
		c2.4-11.1,7.3-13.2,18.3-14.9c51.3-8.4,79.6-33.9,89.2-80.5c2.2-10.5,6.2-13.8,17.8-15.8c50.1-8.7,80.8-35.2,87.7-81.5
		c1.2-8.2,4.6-12,14.5-14.2c72.4-15.7,98.2-50.4,88.3-117.7c-0.6-4.3-2.4-8.8,2.2-12c5.1-3.6,8.8-0.5,12.6,2.5
		c13.9,10.6,28.4,8.1,43.2,1.4c34.1-15.4,68.4-30.4,102.5-46C1447.2,500.7,1451.3,489,1437.1,464.4"/>
</g>
</svg>
