<?xml version="1.0" encoding="utf-8"?>
<!-- Generator: Adobe Illustrator 25.4.0, SVG Export Plug-In . SVG Version: 6.00 Build 0)  -->
<svg version="1.1" id="Calque_1" xmlns="http://www.w3.org/2000/svg" xmlns:xlink="http://www.w3.org/1999/xlink" x="0px" y="0px"
	 viewBox="0 0 999.4 1005.3" style="enable-background:new 0 0 999.4 1005.3;" xml:space="preserve">
<style type="text/css">
	.st0{fill:#42444C;}
</style>
<g>
	<path class="st0" d="M852.2,115.6c-0.1,0-0.3,0-0.5,0l-289.1,4.1c-8.6,0.1-16.8,3.5-22.9,9.7L65.9,603.3
		c-6.3,6.3-9.7,14.5-9.7,23.4s3.4,17.1,9.7,23.3l289.4,289.5h0c12.4,12.5,34.2,12.5,46.7,0l473.6-473.6c6.1-6.2,9.7-14.7,9.7-23.4
		V148.6c0-8.9-3.5-17.3-9.8-23.5C869.2,119,861,115.6,852.2,115.6 M378.7,1005.3c-23.8,0-46.2-9.3-63.1-26.2L26.2,689.7
		C9.3,672.9,0,650.5,0,626.7s9.3-46.2,26.2-63.1L500.1,89.6c16.5-16.5,38.5-25.8,61.8-26.2L851,59.4c0.4,0,0.9,0,1.3,0
		c23.6,0,45.8,9.1,62.6,25.7c17.1,16.9,26.6,39.4,26.6,63.5v293.9c0,23.9-9.3,46.2-26.2,63.1L441.7,979.1
		C424.9,996,402.5,1005.3,378.7,1005.3"/>
	<path class="st0" d="M737.3,220.4c-11.1,0-21.6,4.4-29.4,12.2c-7.9,7.8-12.2,18.3-12.2,29.4c0,11.1,4.3,21.6,12.2,29.5
		c15.7,15.8,43.2,15.7,58.8,0c0,0,0,0,0,0c7.8-7.8,12.2-18.3,12.2-29.5c0-11.1-4.3-21.6-12.2-29.4
		C758.9,224.7,748.5,220.4,737.3,220.4 M737.3,359.8c-26.1,0-50.7-10.2-69.2-28.7c-18.5-18.5-28.7-43-28.7-69.2
		c0-26.1,10.2-50.7,28.7-69.2c18.5-18.4,43.1-28.6,69.2-28.6s50.7,10.2,69.2,28.7s28.7,43,28.7,69.1c0,26.2-10.2,50.7-28.7,69.2
		C788,349.6,763.5,359.8,737.3,359.8"/>
	<path class="st0" d="M762.2,265.3c-7.2,0-14.4-2.8-19.8-8.2c-11-11-11-28.7,0-39.7L951.4,8.2c11-11,28.7-11,39.7,0
		c11,11,11,28.7,0,39.7L782,257C776.5,262.5,769.3,265.3,762.2,265.3"/>
</g>
</svg>
