<?xml version="1.0" encoding="utf-8"?>
<!-- Generator: Adobe Illustrator 25.4.0, SVG Export Plug-In . SVG Version: 6.00 Build 0)  -->
<svg version="1.1" id="Calque_1" xmlns="http://www.w3.org/2000/svg" xmlns:xlink="http://www.w3.org/1999/xlink" x="0px" y="0px"
	 viewBox="0 0 1177.4 1813.8" style="enable-background:new 0 0 1177.4 1813.8;" xml:space="preserve">
<style type="text/css">
	.st0{fill:none;stroke:#000000;stroke-width:60;stroke-linecap:round;stroke-linejoin:round;stroke-miterlimit:10;}
</style>
<g>
	<path class="st0" d="M865.7,812.5V170.9c0-77.8,63-140.9,140.9-140.9c77.8,0,140.9,63.1,140.9,140.9v866.8 M581.7,803.9V555.4
		c0-74.8,62.5-135.5,139.6-135.5h2.7c77,0,139.5,60.7,139.5,135.5 M528.2,1034.6c-24.4,19.5-55.6,31.2-89.7,31.2
		c-77.8,0-140.9-61.3-140.9-136.9V618.6c0-74.8,62.5-135.5,139.5-135.5h2.7c77.1,0,141.7,60.7,141.7,135.5 M164.2,1086.1h-3.9
		C87,1086.1,30,1026.7,30,953.3V739.5C30,658.1,89.5,586,162.9,586h3.9c73.4,0,130.4,59.5,130.4,132.9v234.3
		C297.2,1026.7,237.6,1086.1,164.2,1086.1z M34.8,996.2l-2.6,272.5c0,310.2,153.5,515.1,547.6,515.1h6
		c310.2,0,561.7-204.9,561.7-515.1v-201.6v-46.5c0-112.6-91.2-203.7-203.7-203.7H506.8c-20.8,0-37.8,16.9-37.8,37.8v2.6
		c0,115.9,94,209.9,209.9,209.9h213.9 M893.8,1067.5c0,0-306.6-0.9-307.1,425.6"/>
</g>
</svg>
