<?xml version="1.0" encoding="utf-8"?>
<!-- Generator: Adobe Illustrator 25.2.0, SVG Export Plug-In . SVG Version: 6.00 Build 0)  -->
<svg version="1.1" id="Calque_1" xmlns="http://www.w3.org/2000/svg" xmlns:xlink="http://www.w3.org/1999/xlink" x="0px" y="0px"
	 viewBox="0 0 1342.3 1202.4" style="enable-background:new 0 0 1342.3 1202.4;" xml:space="preserve">
<style type="text/css">
	.st0{fill:#42444C;}
</style>
<g>
	<path class="st0" d="M811.1,703.3l-12.4,12.1l-13.6,11.1c-74.3,60.8-170.7,94.3-271.6,94.3c-107.6,0-208.8-37.5-284.9-105.7
		c-76-68-117.8-158.7-117.8-255.1c0-96.5,41.8-187.1,117.8-255.1c76.1-68.1,177.2-105.7,284.9-105.7s208.8,37.5,284.9,105.7
		c76.1,68.1,118,158.8,118,255.1C916.4,550.4,879,636.8,811.1,703.3 M1320,1085.8L926.7,733.5c65.2-78.8,100.5-174.3,100.5-273.5
		c0-122.9-53.4-238.4-150.4-325.3S650.7,0,513.5,0S247.3,47.8,150.3,134.8C53.4,221.5,0,337.1,0,460.1s53.4,238.6,150.3,325.3
		c97,86.9,226.1,134.8,363.2,134.8c110.8,0,217.4-31.7,305.3-90.1l393.3,352.2c14.4,12.9,33.6,20,53.9,20c20.4,0,39.5-7.1,53.9-20
		C1349.8,1155.7,1349.8,1112.4,1320,1085.8"/>
	<path class="st0" d="M514.7,185.3c-5.1,0-10.2,1.6-14.2,4.9L214.1,418.1c-6.6,5.3-9,13.7-5.8,21.2c3.2,7.5,11.2,12.4,20.1,12.4
		h72.6l-0.1,234.8h144.5V498.4c0-4.2,3.8-7.7,8.6-7.7h123.8c4.8,0,8.6,3.4,8.6,7.7v188.1h145.6V449.1h68.3c8.9,0,16.9-5,20.1-12.4
		c3.2-7.5,0.8-15.9-5.9-21.2L528.8,190.1C524.8,186.9,519.7,185.3,514.7,185.3"/>
</g>
</svg>
