<?xml version="1.0" encoding="utf-8"?>
<!-- Generator: Adobe Illustrator 25.4.0, SVG Export Plug-In . SVG Version: 6.00 Build 0)  -->
<svg version="1.1" id="Calque_1" xmlns="http://www.w3.org/2000/svg" xmlns:xlink="http://www.w3.org/1999/xlink" x="0px" y="0px"
	 viewBox="0 0 754.2 720.2" style="enable-background:new 0 0 754.2 720.2;" xml:space="preserve">
<style type="text/css">
	.st0{fill:#42444C;}
	.st1{fill:#FFFFFF;}
</style>
<path class="st0" d="M378.4,509.5c-8.5,0-15.3,6.5-15.3,14.6s6.8,14.6,15.3,14.6c8.5,0,15.3-6.5,15.3-14.6S386.9,509.5,378.4,509.5"
	/>
<path class="st1" d="M478.9,201.8h-201c-4.6,0-8.2,3.5-8.2,7.9v274.6c0,4.3,3.7,7.9,8.2,7.9h201c4.6,0,8.2-3.5,8.2-7.9V209.6
	C487.1,205.3,483.5,201.8,478.9,201.8"/>
<path class="st0" d="M364.3,189h28.2c2.7,0,4.8-2.1,4.8-4.6c0-2.6-2.1-4.7-4.8-4.7h-28.2c-2.7,0-4.8,2.1-4.8,4.7
	C359.5,187,361.6,189,364.3,189"/>
<path class="st1" d="M507.6,539.7c0,9.1-7.7,16.4-17.2,16.4h-224c-9.5,0-17.2-7.3-17.2-16.4v-359c0-9.1,7.7-16.4,17.2-16.4h224
	c9.5,0,17.2,7.3,17.2,16.4V539.7z M378.4,0.1C170.1,0.1,1.3,161.3,1.3,360.2c0,198.9,168.8,360.1,377.1,360.1
	s377.1-161.2,377.1-360.1C755.5,161.3,586.7,0.1,378.4,0.1"/>
</svg>
