<?xml version="1.0" encoding="utf-8"?>
<!-- Generator: Adobe Illustrator 25.2.0, SVG Export Plug-In . SVG Version: 6.00 Build 0)  -->
<svg version="1.1" id="Calque_1" xmlns="http://www.w3.org/2000/svg" xmlns:xlink="http://www.w3.org/1999/xlink" x="0px" y="0px"
	 viewBox="0 0 771.8 737" style="enable-background:new 0 0 771.8 737;" xml:space="preserve">
<style type="text/css">
	.st0{fill:#42444C;}
</style>
<g>
	<path class="st0" d="M530.7,509.8c-16.6,13.7-34.5,20.6-53.6,20.6c-23.7,0-50.3-7.6-79.9-22.9c-29.5-15.3-56.9-34.5-82-57.5
		c-25.2-23-46.9-49-65.2-77.8c-18.3-28.8-28.9-55.5-31.8-80.2c-2.5-18.3-2.7-30.7-0.7-37.2c2.1-6.6,9.2-15.2,21.2-25.9
		c16.6-16.3,32.2-23.6,46.8-22c9.1,1.2,15.9,4.5,20.3,9.8c4.4,5.4,9.7,17,15.9,34.9l15,42.3l-20,19.7l-20.6,20.2l23.7,35.8
		c10.8,16.3,26.7,33,47.8,50.1c21,17.1,36.1,25.6,45.2,25.6c5.4,0,13.9-5,25.6-14.9c7.9-7.1,14.8-10.9,20.6-11.3
		c5.8-0.4,18.3,1.8,37.4,6.5c27.1,6.8,43.7,12.1,49.9,16.1c6.2,4,9.4,11.9,9.4,23.8C555.7,481.3,547.4,496.1,530.7,509.8 M385.9,0
		C172.8,0,0,165,0,368.5S172.8,737,385.9,737s385.9-165,385.9-368.5C771.8,165,599,0,385.9,0"/>
</g>
</svg>
