<?xml version="1.0" encoding="utf-8"?>
<!-- Generator: Adobe Illustrator 25.4.0, SVG Export Plug-In . SVG Version: 6.00 Build 0)  -->
<svg version="1.1" id="Calque_1" xmlns="http://www.w3.org/2000/svg" xmlns:xlink="http://www.w3.org/1999/xlink" x="0px" y="0px"
	 viewBox="0 0 1192.3 1044.3" style="enable-background:new 0 0 1192.3 1044.3;" xml:space="preserve">
<style type="text/css">
	.st0{fill:#42444C;stroke:#42444C;stroke-width:9;stroke-miterlimit:10;}
	.st1{fill:none;stroke:#42444C;stroke-width:9;stroke-miterlimit:10;}
</style>
<g>
	<path class="st0" d="M996.3,1039.8H195.9c-7.5,0-13.5-6.1-13.5-13.6V432.4c0-7.5,6-13.5,13.5-13.5c7.5,0,13.6,6.1,13.6,13.5v580.2
		h773.3V432.4c0-7.5,6.1-13.5,13.6-13.5s13.6,6.1,13.6,13.5v593.8C1009.9,1033.7,1003.8,1039.8,996.3,1039.8"/>
	<path class="st1" d="M996.3,1039.8H195.9c-7.5,0-13.5-6.1-13.5-13.6V432.4c0-7.5,6-13.5,13.5-13.5c7.5,0,13.6,6.1,13.6,13.5v580.2
		h773.3V432.4c0-7.5,6.1-13.5,13.6-13.5s13.6,6.1,13.6,13.5v593.8C1009.9,1033.7,1003.8,1039.8,996.3,1039.8z"/>
	<path class="st0" d="M1174.2,446c-2.7,0-5.5-0.8-7.9-2.5L596.1,34.8L26,443.4c-6.1,4.4-14.6,3-18.9-3.2c-4.4-6.1-3-14.5,3.2-18.9
		L588.2,7c4.8-3.4,11.1-3.4,15.8,0l578.1,414.4c6.1,4.4,7.5,12.8,3.2,18.9C1182.6,444,1178.4,446,1174.2,446"/>
	<path class="st1" d="M1174.2,446c-2.7,0-5.5-0.8-7.9-2.5L596.1,34.8L26,443.4c-6.1,4.4-14.6,3-18.9-3.2c-4.4-6.1-3-14.5,3.2-18.9
		L588.2,7c4.8-3.4,11.1-3.4,15.8,0l578.1,414.4c6.1,4.4,7.5,12.8,3.2,18.9C1182.6,444,1178.4,446,1174.2,446z"/>
</g>
</svg>
